<svg xmlns="http://www.w3.org/2000/svg" xmlns:xlink="http://www.w3.org/1999/xlink" width="26" height="26" viewBox="0 0 26 26">
  <defs>
    <style>
      .cls-1, .cls-3 {
        fill: #fff;
      }

      .cls-1 {
        stroke: #707070;
      }

      .cls-2 {
        clip-path: url(#clip-path);
      }
    </style>
    <clipPath id="clip-path">
      <circle id="楕円形_5" data-name="楕円形 5" class="cls-1" cx="13" cy="13" r="13" transform="translate(60 178)"/>
    </clipPath>
  </defs>
  <g id="マスクグループ_4" data-name="マスクグループ 4" class="cls-2" transform="translate(-60 -178)">
    <g id="desktop-outline" transform="translate(63.159 181.584)">
      <path id="長方形_11" data-name="長方形 11" class="cls-3" d="M1.733-.75H14.483a2.486,2.486,0,0,1,2.483,2.483V9.85a2.486,2.486,0,0,1-2.483,2.483H1.733A2.486,2.486,0,0,1-.75,9.85V1.733A2.486,2.486,0,0,1,1.733-.75ZM14.483,10.833a.984.984,0,0,0,.983-.983V1.733A.984.984,0,0,0,14.483.75H1.733a.984.984,0,0,0-.983.983V9.85a.984.984,0,0,0,.983.983Z" transform="translate(1.733 3.467)"/>
      <path id="パス_95" data-name="パス 95" class="cls-3" d="M14.742,22.4l-.29-1.6h-2.9l-.29,1.6Z" transform="translate(-3.163 -5.03)"/>
      <path id="パス_95_-_アウトライン" data-name="パス 95 - アウトライン" class="cls-3" d="M14.742,23.146H11.267a.75.75,0,0,1-.738-.884l.29-1.6a.75.75,0,0,1,.738-.616h2.9a.75.75,0,0,1,.738.616l.29,1.6a.75.75,0,0,1-.738.884Zm-2.577-1.5h1.678l-.017-.1H12.182Z" transform="translate(-3.163 -5.03)"/>
      <path id="パス_96" data-name="パス 96" class="cls-3" d="M15.908,25.017H7.8a.75.75,0,1,1,0-1.5h8.108a.75.75,0,1,1,0,1.5Z" transform="translate(-2.013 -6.9)"/>
      <path id="パス_97" data-name="パス 97" class="cls-3" d="M1.733,16.467V18.2a1.162,1.162,0,0,0,1.158,1.158h13.9A1.162,1.162,0,0,0,17.949,18.2V16.467Zm8.108,2.317a.579.579,0,1,1,.579-.579A.579.579,0,0,1,9.841,18.783Z" transform="translate(0 -5.05)"/>
    </g>
  </g>
</svg>
