<svg xmlns="http://www.w3.org/2000/svg" width="13.481" height="23.281" viewBox="0 0 13.481 23.281">
  <defs>
    <style>
      .cls-1 {
        fill: #757575;
      }
    </style>
  </defs>
  <g id="グループ_52" data-name="グループ 52" transform="translate(-1856 -1330)">
    <path id="線_10" data-name="線 10" class="cls-1" d="M10.481,11.641a1.5,1.5,0,0,1-1.043-.422L-1.043,1.078a1.5,1.5,0,0,1-.035-2.121,1.5,1.5,0,0,1,2.121-.035L11.524,9.063a1.5,1.5,0,0,1-1.043,2.578Z" transform="translate(1857.5 1331.5)"/>
    <path id="線_11" data-name="線 11" class="cls-1" d="M0,11.641a1.5,1.5,0,0,1-1.078-.457,1.5,1.5,0,0,1,.035-2.121L9.438-1.078a1.5,1.5,0,0,1,2.121.035,1.5,1.5,0,0,1-.035,2.121L1.043,11.219A1.5,1.5,0,0,1,0,11.641Z" transform="translate(1857.5 1341.64)"/>
  </g>
</svg>
