<svg xmlns="http://www.w3.org/2000/svg" xmlns:xlink="http://www.w3.org/1999/xlink" width="26" height="26" viewBox="0 0 26 26">
  <defs>
    <style>
      .cls-1, .cls-3 {
        fill: #fff;
      }

      .cls-1 {
        stroke: #707070;
      }

      .cls-2 {
        clip-path: url(#clip-path);
      }
    </style>
    <clipPath id="clip-path">
      <circle id="楕円形_3" data-name="楕円形 3" class="cls-1" cx="13" cy="13" r="13" transform="translate(60 132)"/>
    </clipPath>
  </defs>
  <g id="マスクグループ_3" data-name="マスクグループ 3" class="cls-2" transform="translate(-60 -132)">
    <g id="today-outline" transform="translate(62.816 134.816)">
      <path id="長方形_9" data-name="長方形 9" class="cls-3" d="M2.786-.75h9.225a3.54,3.54,0,0,1,3.536,3.536v8.087a3.54,3.54,0,0,1-3.536,3.536H2.786A3.54,3.54,0,0,1-.75,10.873V2.786A3.54,3.54,0,0,1,2.786-.75Zm9.225,13.659a2.038,2.038,0,0,0,2.036-2.036V2.786A2.038,2.038,0,0,0,12.011.75H2.786A2.038,2.038,0,0,0,.75,2.786v8.087a2.038,2.038,0,0,0,2.036,2.036Z" transform="translate(2.786 3.924)"/>
      <path id="パス_93" data-name="パス 93" class="cls-3" d="M16.534,4.674a.75.75,0,0,1-.75-.75V2.786a.75.75,0,1,1,1.5,0V3.924A.75.75,0,0,1,16.534,4.674Z" transform="translate(-1.797)"/>
      <path id="長方形_10" data-name="長方形 10" class="cls-3" d="M.754-.75H2.66a1.506,1.506,0,0,1,1.5,1.5V2.66a1.506,1.506,0,0,1-1.5,1.5H.754a1.506,1.506,0,0,1-1.5-1.5V.754A1.506,1.506,0,0,1,.754-.75ZM2.66,2.665l0,0V.754l0,0H.753l0,0V2.66l0,0Z" transform="translate(5.062 9.046)"/>
      <path id="パス_94" data-name="パス 94" class="cls-3" d="M17.583,10.036H2.786a.75.75,0,0,1,0-1.5h14.8a.75.75,0,1,1,0,1.5Z" transform="translate(0 -2.516)"/>
    </g>
  </g>
</svg>
