<svg xmlns="http://www.w3.org/2000/svg" xmlns:xlink="http://www.w3.org/1999/xlink" width="26" height="26" viewBox="0 0 26 26">
  <defs>
    <style>
      .cls-1, .cls-3 {
        fill: #fff;
      }

      .cls-1 {
        stroke: #fff;
      }

      .cls-2 {
        clip-path: url(#clip-path);
      }
    </style>
    <clipPath id="clip-path">
      <circle id="楕円形_7" data-name="楕円形 7" class="cls-1" cx="13" cy="13" r="13" transform="translate(60 223)"/>
    </clipPath>
  </defs>
  <g id="マスクグループ_5" data-name="マスクグループ 5" class="cls-2" transform="translate(-60 -223)">
    <g id="person-outline" transform="translate(60.294 224.804)">
      <path id="パス_98" data-name="パス 98" class="cls-3" d="M13.868,1.857A5.019,5.019,0,0,1,17.6,3.44a5.112,5.112,0,0,1,1.317,3.91c-.219,2.953-2.483,5.356-5.047,5.356S9.036,10.3,8.821,7.349a5.125,5.125,0,0,1,1.31-3.918A5.029,5.029,0,0,1,13.868,1.857Zm0,8.992c1.586,0,3.049-1.665,3.2-3.636A3.275,3.275,0,0,0,16.237,4.7,3.35,3.35,0,0,0,11.491,4.7a3.29,3.29,0,0,0-.818,2.519C10.816,9.184,12.28,10.849,13.868,10.849Z" transform="translate(-1.162)"/>
      <path id="パス_99" data-name="パス 99" class="cls-3" d="M12.706,16.714a11.351,11.351,0,0,1,6.243,1.81A8.194,8.194,0,0,1,22.6,23.969a3.687,3.687,0,0,1-.327,2.566,1.211,1.211,0,0,1-.63.4c-.83.433-4.992,2.5-8.933,2.5s-8.142-2.069-8.973-2.5a1.2,1.2,0,0,1-.624-.4,3.487,3.487,0,0,1-.292-2.571,8.193,8.193,0,0,1,3.645-5.444A11.351,11.351,0,0,1,12.706,16.714Zm8.108,8.56a4.068,4.068,0,0,0-.046-.975,6.377,6.377,0,0,0-2.848-4.229,9.477,9.477,0,0,0-5.213-1.5,9.477,9.477,0,0,0-5.213,1.5A6.376,6.376,0,0,0,4.645,24.3a4.542,4.542,0,0,0-.069.985c.677.348,4.624,2.3,8.13,2.3C16.262,27.581,20.214,25.588,20.814,25.274Z" transform="translate(0 -2.868)"/>
    </g>
  </g>
</svg>
